Coordinates
version=1
nRows=26
nColumns=24
inDegrees=yes

Units are S.I. units (second, meters, Newtons, ...)
Angles are in degrees.

endheader
time	pelvis_tilt	pelvis_list	pelvis_rotation	pelvis_tx	pelvis_ty	pelvis_tz	hip_flexion_r	hip_adduction_r	hip_rotation_r	knee_angle_r	ankle_angle_r	subtalar_angle_r	mtp_angle_r	hip_flexion_l	hip_adduction_l	hip_rotation_l	knee_angle_l	ankle_angle_l	subtalar_angle_l	mtp_angle_l	lumbar_extension	lumbar_bending	lumbar_rotation
      0.33500000	     23.68939671	     -1.72673339	     -4.26114694	     -0.68497690	      0.95475583	     -0.01493752	    -44.17664969	      3.17516043	    -10.52330652	     -2.04063715	     14.39510008	     14.33552563	     15.90291491	     -6.86084280	      3.48569253	    -23.33120102	      4.56928734	     -0.25655613	     20.12573612	     30.47717999	    -32.01409365	     -1.09884463	      2.29890699
      0.34000000	     23.73281350	     -1.65869581	     -4.47582150	     -0.67851356	      0.95411969	     -0.01463069	    -44.36446405	      2.89038451	    -10.36570406	     -2.55615526	     14.45537473	     14.25054207	     15.98623624	     -6.92902275	      3.60804891	    -23.39807102	      4.31537759	     -0.51489058	     19.83686330	     30.41167897	    -31.95708661	     -1.32944541	      2.33156499
      0.34500000	     23.78564957	     -1.58795169	     -4.63287874	     -0.67208585	      0.95353861	     -0.01442611	    -44.53895909	      2.63664342	    -10.23908036	     -3.10364153	     14.35416616	     14.12592686	     16.59691919	     -7.03813069	      3.73134355	    -23.19386395	      4.06166369	     -0.91338768	     18.89158740	     30.34098888	    -31.91617271	     -1.53550887	      2.28545508
      0.35000000	     23.87639018	     -1.52713656	     -4.88218677	     -0.66565086	      0.95309447	     -0.01409698	    -44.72992493	      2.31723518	     -9.99293687	     -3.68732535	     14.31105593	     14.03252156	     17.03616191	     -7.16806080	      3.83791061	    -23.22423913	      3.68098628	     -1.38374463	     18.23523661	     30.30919980	    -31.91283468	     -1.78009394	      2.35233524
      0.35500000	     23.81763529	     -1.43665292	     -5.01828845	     -0.65923431	      0.95253086	     -0.01389983	    -44.69459569	      2.06486800	     -9.85808740	     -4.38392591	     14.08914775	     13.72926694	     18.88455575	     -7.10484577	      3.92862525	    -22.95265949	      3.19523362	     -1.89908976	     17.11980141	     30.70079510	    -31.75498032	     -1.99411996	      2.27465624
      0.36000000	     23.94493303	     -1.31747401	     -5.29377462	     -0.65271953	      0.95228714	     -0.01348374	    -44.89235510	      1.67905510	     -9.56992489	     -5.00683098	     13.93545486	     13.53864993	     19.16694705	     -7.26672532	      4.08383705	    -23.03315177	      2.68210517	     -2.47325246	     16.37691859	     30.61484015	    -31.77561450	     -2.32721509	      2.30143189
      0.36500000	     23.88126964	     -1.17783994	     -5.39843929	     -0.64629847	      0.95186163	     -0.01335139	    -44.79143876	      1.40273956	     -9.47802565	     -5.80020306	     13.67344259	     13.21381754	     20.76006815	     -7.17755593	      4.20537611	    -22.64158264	      2.06420415	     -3.05062225	     15.02242952	     30.86538002	    -31.61102270	     -2.57783975	      2.17413180
      0.37000000	     23.92989657	     -1.02486818	     -5.59096277	     -0.63983164	      0.95168724	     -0.01305692	    -44.84263999	      1.05227789	     -9.20362007	     -6.50588544	     13.33162477	     12.90173891	     21.64345790	     -7.21584840	      4.35866868	    -22.47699882	      1.40688193	     -3.67175946	     13.85167300	     30.85564636	    -31.55638486	     -2.90218773	      2.09999767
      0.37500000	     23.90603876	     -0.88676340	     -5.77765696	     -0.63337790	      0.95152287	     -0.01281619	    -44.71471396	      0.70813881	     -9.01507296	     -7.39642894	     12.85009435	     12.60026429	     23.99652108	     -7.15612217	      4.47515933	    -22.30669848	      0.67831258	     -4.24726660	     12.80550709	     31.18083397	    -31.42733544	     -3.19792988	      2.06651171
      0.38000000	     23.95472212	     -0.73529636	     -5.98716713	     -0.62697255	      0.95152846	     -0.01252714	    -44.64450019	      0.34005512	     -8.72447916	     -8.32147115	     12.56915394	     12.20018816	     24.35333304	     -7.18274425	      4.61420549	    -22.14561553	     -0.06262857	     -4.74593317	     11.80380524	     30.95569116	    -31.37822828	     -3.53050768	      2.05753187
      0.38500000	     23.89123067	     -0.54008721	     -6.05440583	     -0.62055201	      0.95145947	     -0.01245002	    -44.41981500	      0.03958155	     -8.58888371	     -9.29748355	     12.07642439	     11.86211407	     25.41955161	     -7.04624602	      4.76293024	    -21.70386715	     -0.89958483	     -5.11252058	     10.51664950	     30.65370309	    -31.21694801	     -3.82809318	      1.85079497
      0.39000000	     23.91149431	     -0.31786844	     -6.21348999	     -0.61406514	      0.95157773	     -0.01225031	    -44.22718809	     -0.36053159	     -8.47053034	    -10.35401052	     11.35725427	     11.41811156	     28.60306962	     -7.02276713	      4.95725242	    -21.50528955	     -1.72050269	     -5.42486860	      9.75950622	     30.24948106	    -31.12861145	     -4.20643430	      1.74752139
      0.39500000	     23.84692564	     -0.18156654	     -6.32628594	     -0.60776083	      0.95169517	     -0.01210198	    -43.87764317	     -0.64421182	     -8.18181084	    -11.54292491	     10.91312411	     10.96472964	     29.06921089	     -6.85542451	      5.02378042	    -21.22872334	     -2.67769403	     -5.52173041	      8.93611426	     29.94229599	    -30.98171589	     -4.47037657	      1.68863773
      0.40000000	     23.85488612	      0.08299400	     -6.42835303	     -0.60123006	      0.95194319	     -0.01198942	    -43.60275468	     -1.04441278	     -8.13575837	    -12.69985448	      9.98712229	     10.52622738	     32.19429769	     -6.83140150	      5.26181269	    -20.90824931	     -3.50913883	     -5.53664591	      8.17499318	     28.80811749	    -30.87833700	     -4.86637367	      1.50987206
      0.40500000	     23.75879435	      0.24046280	     -6.48620755	     -0.59492882	      0.95214716	     -0.01190777	    -43.11597474	     -1.31257132	     -7.93076613	    -14.06103267	      9.41714073	     10.10502251	     32.66994816	     -6.61508168	      5.33074742	    -20.61447943	     -4.53183212	     -5.37758422	      7.61810784	     28.49160896	    -30.70342709	     -5.12690851	      1.39407167
      0.41000000	     23.79870874	      0.49405222	     -6.56575584	     -0.58842434	      0.95256165	     -0.01184014	    -42.78571927	     -1.70163005	     -7.90004607	    -15.34459504	      8.22077201	      9.60459103	     36.38937591	     -6.63041243	      5.55326585	    -20.35438727	     -5.40201560	     -5.03232153	      7.27271052	     26.64569668	    -30.64257163	     -5.50317509	      1.23267723
      0.41500000	     23.74098041	      0.72128821	     -6.61806796	     -0.58198738	      0.95291443	     -0.01181754	    -42.26697328	     -2.04905316	     -7.82988295	    -16.78828629	      7.20061677	      9.16626137	     38.63930227	     -6.52784710	      5.72826573	    -20.06630772	     -6.30792526	     -4.56077430	      6.96650213	     25.06301054	    -30.49039111	     -5.83010895	      1.07501177
      0.42000000	     23.71083651	      0.95588596	     -6.67383487	     -0.57553384	      0.95335307	     -0.01179952	    -41.73291935	     -2.41660907	     -7.78832887	    -18.29015996	      6.05509006	      8.73765977	     40.88039314	     -6.49521547	      5.92357097	    -19.81030606	     -7.14045188	     -4.05336052	      6.81386273	     23.55817514	    -30.36528244	     -6.16802397	      0.93012273
      0.42500000	     23.67646422	      1.21091493	     -6.72521095	     -0.56906960	      0.95383511	     -0.01183354	    -41.14344056	     -2.81368686	     -7.78795462	    -19.86223136	      4.79194590	      8.32932411	     43.01673133	     -6.51045663	      6.16214860	    -19.52231784	     -7.85600156	     -3.58231428	      6.62797209	     22.13712520	    -30.23385645	     -6.51850583	      0.78536651
      0.43000000	     23.65423187	      1.45960707	     -6.75454526	     -0.56261301	      0.95436077	     -0.01188050	    -40.53303970	     -3.19830108	     -7.80586505	    -21.46235109	      3.41864124	      7.89797587	     45.29976077	     -6.54980565	      6.39062464	    -19.27042170	     -8.57268313	     -2.91938279	      6.59052561	     20.74906507	    -30.11968690	     -6.85724159	      0.62897092
      0.43500000	     23.64671304	      1.72571463	     -6.84046108	     -0.55611351	      0.95493632	     -0.01189909	    -39.87801560	     -3.66321927	     -7.83995767	    -23.13812626	      1.91397190	      7.62514725	     47.63042139	     -6.66978049	      6.66019370	    -19.12867747	     -9.15656122	     -2.28793126	      6.78231574	     19.29858552	    -30.00802003	     -7.23248938	      0.52397030
      0.44000000	     23.65362918	      1.99954388	     -6.93412259	     -0.54962020	      0.95555731	     -0.01194574	    -39.20212766	     -4.15625570	     -7.88239454	    -24.83855874	      0.32653846	      7.39594065	     49.74321927	     -6.85778115	      6.96074341	    -18.99452259	     -9.62630361	     -1.66864045	      6.93323088	     17.94869669	    -29.91096413	     -7.61465747	      0.43700892
      0.44500000	     23.65536553	      2.27064313	     -7.04313273	     -0.54314439	      0.95620988	     -0.01198610	    -38.47419489	     -4.67006261	     -7.90834598	    -26.57381567	     -1.37750663	      7.20345498	     51.73313086	     -7.08516844	      7.26970840	    -18.90287488	    -10.00260313	     -1.05227381	      7.17264101	     16.73822215	    -29.80729326	     -7.99827523	      0.37145185
      0.45000000	     23.64995360	      2.55750739	     -7.17062603	     -0.53669346	      0.95684089	     -0.01205309	    -37.69163732	     -5.23281303	     -7.94754053	    -28.35690130	     -3.05159772	      7.18362387	     53.26337351	     -7.32184561	      7.60785408	    -18.87110784	    -10.33592886	     -0.43470479	      7.34099622	     15.83782394	    -29.69520451	     -8.39793716	      0.32205162
      0.45500000	     23.70920277	      2.86183591	     -7.35649093	     -0.53019251	      0.95758257	     -0.01203108	    -36.96462064	     -5.85156640	     -7.94848775	    -30.09164857	     -4.88353102	      6.95151607	     55.04186761	     -7.73149666	      8.00682431	    -18.89077668	    -10.44308797	      0.09365146	      7.61066115	     14.82559281	    -29.63354247	     -8.84712228	      0.31701050
      0.46000000	     23.74383650	      3.12385815	     -7.48275539	     -0.52376411	      0.95835050	     -0.01210999	    -36.19986393	     -6.39781911	     -7.91982138	    -31.80483407	     -6.68481059	      6.96051123	     55.01147037	     -8.16002158	      8.36844661	    -18.79946263	    -10.44522476	      0.45557312	      7.73998895	     14.81774209	    -29.56477322	     -9.21838228	      0.27472459
